# xmcd
#
# Track frame offsets: 
#        150
#        15458
#        29390
#        46785
#        59980
#        79807
#        95171
#        107133
#        122795
#        141677
#        178064
#
# Disc length: 2559 seconds
#
# Revision: 1
# Processed by: cddbd v1.5.2PL0 Copyright (c) Steve Scherf et al.
# Submitted via: ExactAudioCopy v1.0b3
#
DISCID=a109fd0b
DTITLE=Andi Almqvist and The Employees - Can't Stop Laughing
DYEAR=2005
DGENRE=Blues
TTITLE0=Big Bad Black Dog Blues
TTITLE1=Boneyard Blues
TTITLE2=Can't Stop Laughing
TTITLE3=The Devil Is A Girl
TTITLE4=Weekend Trip To Hell
TTITLE5=Deadbeat
TTITLE6=Rain
TTITLE7=Black Train
TTITLE8=The Old Gal And The Fat Man
TTITLE9=San Pedro Sula
TTITLE10=Exit Song
EXTD=YEAR: 2005
EXTT0=
EXTT1=
EXTT2=
EXTT3=
EXTT4=
EXTT5=
EXTT6=
EXTT7=
EXTT8=
EXTT9=
EXTT10=
PLAYORDER=
